<svg fill="none" viewBox="0 0 24 24" xmlns="http://www.w3.org/2000/svg"><g clip-path="url(#a)"><path d="M5.319 14.504l-.836 3.119-3.053.064A11.946 11.946 0 0 1 0 12c0-1.99.484-3.866 1.342-5.518l2.719.498 1.19 2.702a7.134 7.134 0 0 0-.384 2.319c0 .88.16 1.724.452 2.503z" fill="#FBBB00"/><path d="M23.79 9.758a12.02 12.02 0 0 1-.053 4.747 11.998 11.998 0 0 1-4.225 6.853l-3.424-.175-.485-3.025a7.152 7.152 0 0 0 3.077-3.652h-6.416V9.758H23.79z" fill="#518EF8"/><path d="M19.512 21.357A11.95 11.95 0 0 1 12 24c-4.57 0-8.543-2.555-10.57-6.314l3.889-3.183a7.135 7.135 0 0 0 10.284 3.654l3.909 3.2z" fill="#28B446"/><path d="M19.659 2.763l-3.888 3.182a7.137 7.137 0 0 0-10.52 3.736l-3.91-3.2A11.998 11.998 0 0 1 12 0a11.95 11.95 0 0 1 7.66 2.763z" fill="#F14336"/></g><defs><clipPath id="a"><path fill="#fff" d="M0 0h24v24H0z"/></clipPath></defs></svg>